<svg xmlns="http://www.w3.org/2000/svg" version="1.1" xmlns:xlink="http://www.w3.org/1999/xlink" xmlns:svgjs="http://svgjs.com/svgjs" width="2000" height="1000" preserveAspectRatio="none" viewBox="0 0 2000 1000">
    <g mask="url(&quot;#SvgjsMask1134&quot;)" fill="none">
        <rect width="2000" height="1000" x="0" y="0" fill="url(#SvgjsLinearGradient1135)"></rect>
        <path d="M-119.41 355.08 a160.19 160.19 0 1 0 320.38 0 a160.19 160.19 0 1 0 -320.38 0z" fill="rgba(142, 77, 28, 0.4)" class="triangle-float2"></path>
        <path d="M814.51 13.53 a111.36 111.36 0 1 0 222.72 0 a111.36 111.36 0 1 0 -222.72 0z" fill="rgba(142, 77, 28, 0.4)" class="triangle-float1"></path>
        <path d="M1265.5759864084748 542.0068078538997L1325.3280324710377 459.7651719422275 1243.0863965593653 400.0131258796647 1183.3343504968027 482.2547617913369z" fill="rgba(142, 77, 28, 0.4)" class="triangle-float2"></path>
        <path d="M830.18 1.53 a144.66 144.66 0 1 0 289.32 0 a144.66 144.66 0 1 0 -289.32 0z" fill="rgba(142, 77, 28, 0.4)" class="triangle-float3"></path>
        <path d="M1398.973498285185 446.8874845035468L1332.0448359168995 539.0068853485745 1424.1642367619272 605.9355477168602 1491.0928991302128 513.8161468718324z" fill="rgba(142, 77, 28, 0.4)" class="triangle-float3"></path>
        <path d="M1073.5051909350402 267.67887051910736L1224.3119913444143 230.07851215786798 1035.9048325738008 116.87207010973336z" fill="rgba(142, 77, 28, 0.4)" class="triangle-float1"></path>
    </g>
    <defs>
        <mask id="SvgjsMask1134">
            <rect width="2000" height="1000" fill="#ffffff"></rect>
        </mask>
        <linearGradient x1="15.28%" y1="-39.29%" x2="84.72%" y2="139.29%" gradientUnits="userSpaceOnUse" id="SvgjsLinearGradient1135">
            <stop stop-color="rgba(0, 0, 0, 1)" offset="0"></stop>
            <stop stop-color="rgba(147, 41, 30, 1)" offset="1"></stop>
        </linearGradient>
        <style>
            @keyframes float1 {
                0%{transform: translate(0, 0)}
                50%{transform: translate(-10px, 0)}
                100%{transform: translate(0, 0)}
            }

            .triangle-float1 {
                animation: float1 5s infinite;
            }

            @keyframes float2 {
                0%{transform: translate(0, 0)}
                50%{transform: translate(-5px, -5px)}
                100%{transform: translate(0, 0)}
            }

            .triangle-float2 {
                animation: float2 4s infinite;
            }

            @keyframes float3 {
                0%{transform: translate(0, 0)}
                50%{transform: translate(0, -10px)}
                100%{transform: translate(0, 0)}
            }

            .triangle-float3 {
                animation: float3 6s infinite;
            }
        </style>
    </defs>
</svg>