<svg width="88" height="69" viewBox="0 0 88 69" fill="none" xmlns="http://www.w3.org/2000/svg">
<path d="M29.3968 0C13.1619 0 0 20.0431 0 34.2149C0 48.3867 13.1619 69 29.3968 69C40.7022 69 69.5115 60.4273 87.2787 49.6116C87.2787 49.6253 87.2787 49.414 87.2787 49.6116C87.3356 49.5084 87.6548 48.9302 87.7408 48.7745C87.8098 48.6494 88 47.9008 88 47.9008C88 46.9095 88 47.7843 88 46.6246C88 44.4793 88 45.0496 88 43.7173C88 41.6281 88 42.7686 88 41.6281C88 40.4876 88 41.5511 88 40.4876C88 39.2124 88 37.0661 88 35.3554C88 33.6446 88 28.5124 88 26.8017C88 25.0909 88 23.3802 88 20.5289C88 17.6467 76.0845 12.4335 62.7541 7.98198C49.7108 3.62636 35.3128 0 29.3968 0ZM40.3726 46.6246H18.421V42.2468L32.9539 26.2H18.7875V21.8051H40.3335V25.9631L25.6135 42.2468H40.3736L40.3726 46.6246Z" fill="#93291E"/>
<path d="M88 20.8333C88 20.3072 87.6552 19.7914 87.0043 19.3438C86.3534 18.8962 85.4221 18.5344 84.3148 18.2991C83.2074 18.0638 81.9677 17.9642 80.7346 18.0114C79.5016 18.0587 78.3238 18.251 77.3333 18.5667L50.6667 27.0667C49.8387 27.3306 49.1667 27.6728 48.7038 28.0662C48.241 28.4597 48 28.8935 48 29.3333V40.6667C48 41.1065 48.241 41.5403 48.7038 41.9338C49.1667 42.3272 49.8387 42.6694 50.6667 42.9333L77.3333 51.4333C78.3238 51.749 79.5016 51.9413 80.7346 51.9886C81.9677 52.0358 83.2074 51.9362 84.3148 51.7009C85.4221 51.4656 86.3534 51.1038 87.0043 50.6562C87.6552 50.2086 88 49.6928 88 49.1667V20.8333Z" fill="#1A1A1D"/>
</svg>
