<svg width="600" height="1442" viewBox="0 0 600 1442" fill="none" xmlns="http://www.w3.org/2000/svg">
<g clip-path="url(#clip0)">
<path d="M471.183 1440.78L439.74 1410.73C409.475 1380.69 344.825 1320.59 361.686 1260.62C377.369 1200.64 471.62 1140.78 471.708 1080.78C471.795 1020.78 377.719 960.642 299.239 900.527C221.936 840.414 157.286 780.32 127.065 720.276C95.6665 660.23 95.7541 600.23 174.409 540.345C251.887 480.458 410.876 420.689 425.676 360.711C440.477 300.733 316.975 240.552 269.098 180.482C222.986 120.415 252.5 60.4581 269.316 30.4826L284.956 0.505351L944.1 1.46676L944.056 31.4667C944.012 61.4667 943.925 121.467 943.837 181.467C943.75 241.467 943.662 301.466 943.575 361.466C943.487 421.466 943.4 481.466 943.312 541.466C943.225 601.466 943.137 661.466 943.05 721.466C942.962 781.466 942.875 841.466 942.787 901.466C942.7 961.466 942.612 1021.47 942.525 1081.47C942.437 1141.47 942.35 1201.47 942.262 1261.47C942.175 1321.47 942.087 1381.47 942.043 1411.47L942 1441.47L471.183 1440.78Z" fill="#93291E"/>
</g>
<defs>
<clipPath id="clip0">
<rect width="1440" height="941.635" fill="white" transform="translate(0.365417 1440.09) rotate(-89.9164)"/>
</clipPath>
</defs>
</svg>
