<svg width="593" height="457" viewBox="0 0 593 457" fill="none" xmlns="http://www.w3.org/2000/svg">
<g clip-path="url(#clip0)">
<path d="M58.3164 121.459C90.5236 121.459 116.633 94.2691 116.633 60.7293C116.633 27.1894 90.5236 0 58.3164 0C26.1091 0 0 27.1894 0 60.7293C0 94.2691 26.1091 121.459 58.3164 121.459Z" fill="#F0F0F0"/>
<path d="M534.684 257.551C566.891 257.551 593 230.361 593 196.821C593 163.282 566.891 136.092 534.684 136.092C502.476 136.092 476.367 163.282 476.367 196.821C476.367 230.361 502.476 257.551 534.684 257.551Z" fill="#F0F0F0"/>
<path d="M352.509 452.083L342.256 447.587L335.223 394.064H241.562L233.939 447.369L224.766 452.145C224.327 452.373 223.975 452.749 223.767 453.212C223.559 453.675 223.508 454.197 223.62 454.695C223.733 455.192 224.004 455.635 224.389 455.952C224.773 456.269 225.25 456.442 225.74 456.442H351.664C352.167 456.442 352.654 456.261 353.043 455.929C353.433 455.597 353.7 455.136 353.799 454.622C353.899 454.109 353.825 453.576 353.589 453.113C353.354 452.65 352.973 452.286 352.509 452.083Z" fill="#E6E6E6"/>
<path d="M518.95 401.185H58.8631C56.4492 401.179 54.136 400.177 52.4309 398.397C50.7259 396.618 49.7684 394.206 49.7684 391.693V324.13H528.045V391.693C528.045 394.206 527.088 396.618 525.383 398.397C523.678 400.177 521.364 401.179 518.95 401.185Z" fill="#CCCCCC"/>
<path d="M528.526 356.062H49.3484V66.9746C49.3518 63.9408 50.5106 61.0323 52.5706 58.8871C54.6307 56.7419 57.4237 55.5353 60.3369 55.5319H517.537C520.451 55.5353 523.244 56.7419 525.304 58.8871C527.364 61.0323 528.523 63.9408 528.526 66.9746V356.062Z" fill="#3F3D56"/>
<path d="M499.907 335.08H77.9678C75.7219 335.077 73.5686 334.147 71.9805 332.493C70.3924 330.839 69.499 328.597 69.4965 326.258V85.3354C69.499 82.9965 70.3923 80.7541 71.9804 79.1002C73.5686 77.4463 75.7218 76.516 77.9678 76.5133H499.907C502.153 76.516 504.306 77.4463 505.894 79.1002C507.482 80.7541 508.376 82.9965 508.378 85.3354V326.258C508.376 328.597 507.482 330.839 505.894 332.493C504.306 334.147 502.153 335.077 499.907 335.08Z" fill="white"/>
<path d="M407.27 457H170.177C169.934 457.005 169.696 456.927 169.501 456.777C169.305 456.627 169.163 456.414 169.096 456.171C169.054 456.005 169.049 455.832 169.081 455.664C169.114 455.496 169.183 455.339 169.283 455.203C169.383 455.067 169.512 454.957 169.66 454.882C169.807 454.806 169.969 454.767 170.134 454.767H407.182C407.439 454.757 407.69 454.838 407.896 454.997C408.103 455.156 408.251 455.382 408.318 455.64C408.353 455.803 408.352 455.973 408.315 456.136C408.279 456.299 408.208 456.451 408.107 456.582C408.007 456.712 407.879 456.817 407.734 456.89C407.59 456.962 407.431 457 407.27 457Z" fill="#CCCCCC"/>
<path d="M452.081 292.191H363.182C362.961 292.21 362.741 292.139 362.57 291.991C362.399 291.844 362.29 291.632 362.267 291.402V216.728C362.29 216.498 362.399 216.286 362.57 216.139C362.741 215.991 362.961 215.92 363.182 215.939H452.081C452.302 215.92 452.522 215.991 452.693 216.139C452.864 216.286 452.973 216.498 452.996 216.728V291.402C452.973 291.632 452.864 291.844 452.693 291.991C452.522 292.139 452.302 292.21 452.081 292.191Z" fill="#F0F0F0"/>
<path d="M442.418 224.201H372.845C372.603 224.201 372.37 224.302 372.198 224.481C372.027 224.659 371.93 224.902 371.93 225.154V281.293C371.93 281.546 372.027 281.788 372.198 281.967C372.37 282.146 372.603 282.246 372.845 282.247H442.418C442.66 282.246 442.893 282.146 443.065 281.967C443.236 281.788 443.333 281.546 443.333 281.293V225.154C443.333 224.902 443.236 224.659 443.065 224.481C442.893 224.302 442.66 224.201 442.418 224.201Z" fill="white"/>
<path d="M405.913 262.242C410.798 262.242 414.758 258.117 414.758 253.03C414.758 247.942 410.798 243.818 405.913 243.818C401.027 243.818 397.067 247.942 397.067 253.03C397.067 258.117 401.027 262.242 405.913 262.242Z" fill="#FFB8B8"/>
<path d="M418.855 282.246H399.242L399.883 267.231L400.035 267.064L402.237 264.642H409.24L411.836 267.261L412.046 267.472L417.573 272.989L418.855 282.246Z" fill="url(#paint0_linear)"/>
<path d="M402.615 282.247H387.777C387.74 278.857 387.72 276.828 387.72 276.828L388.578 276.283L388.582 276.281H388.584L398.04 270.303L400.025 266.945L400.035 267.064L400.619 274.141C400.619 274.141 401.583 277.387 402.615 282.247Z" fill="#2F2E41"/>
<path d="M427.553 282.247H411.836C412.074 272.362 410.793 266.945 411.452 266.945L411.836 267.261L416.468 271.07L422.573 273.402H422.577L426.786 275.01L427.525 275.292V275.654C427.527 276.523 427.531 278.897 427.553 282.247Z" fill="#2F2E41"/>
<path d="M397.544 255.912C397.544 255.912 398.296 254.538 398.121 249.946C397.946 245.354 404.66 247.951 410.271 247.513C415.881 247.075 414.694 255.179 414.694 255.179C414.694 255.179 415.098 254.697 415.965 250.786C416.832 246.875 414.864 242.977 414.864 242.977C414.284 238.867 411.161 240.184 411.161 240.184C411.556 240.289 411.899 240.543 412.124 240.897C412.349 241.25 412.439 241.679 412.377 242.098C411.103 239.773 407.98 241.091 407.98 241.091C403.815 238.369 399.594 241.953 399.594 241.953C394.562 243.142 397.513 247.31 397.513 247.31C392.452 249.973 397.544 255.912 397.544 255.912Z" fill="#2F2E41"/>
<path d="M389.758 282.247H383.661C383.709 281.464 383.71 280.68 383.666 279.897C383.301 278.387 388.424 276.345 388.578 276.283L388.582 276.281H388.584L389.561 276.828L389.758 282.247Z" fill="#2F2E41"/>
<path d="M428.654 282.247H422.25L421.45 274.027L422.347 273.345C422.347 273.345 422.429 273.364 422.573 273.402H422.577C424.041 273.749 425.455 274.289 426.786 275.01C427.069 275.175 427.319 275.393 427.525 275.654C427.651 275.811 427.713 276.013 427.7 276.217C427.667 276.525 428.041 278.787 428.654 282.247Z" fill="#2F2E41"/>
<path d="M451.791 196.913H362.893C362.671 196.933 362.451 196.861 362.28 196.713C362.109 196.566 362 196.354 361.977 196.124V121.423C362 121.193 362.109 120.981 362.28 120.834C362.451 120.686 362.671 120.615 362.893 120.634H451.791C452.012 120.615 452.232 120.686 452.403 120.834C452.575 120.981 452.683 121.193 452.706 121.423V196.124C452.683 196.354 452.575 196.566 452.403 196.713C452.232 196.861 452.012 196.933 451.791 196.913Z" fill="#F0F0F0"/>
<path d="M442.128 128.896H372.556C372.313 128.897 372.08 128.997 371.909 129.176C371.737 129.355 371.641 129.597 371.64 129.849V185.989C371.641 186.241 371.737 186.483 371.909 186.662C372.08 186.841 372.313 186.941 372.556 186.942H442.128C442.371 186.941 442.603 186.841 442.775 186.662C442.947 186.483 443.043 186.241 443.044 185.989V129.849C443.043 129.597 442.947 129.355 442.775 129.176C442.603 128.997 442.371 128.897 442.128 128.896Z" fill="white"/>
<path d="M424.466 186.942C424.859 185.47 425.164 184.201 425.321 183.302C425.369 183.025 425.374 182.742 425.335 182.463C424.749 178.123 414.167 174.454 412.81 174L412.482 170.221L399.162 168.727L397.476 173.562L392.695 175.428C392.522 175.495 392.357 175.583 392.205 175.691C391.804 175.973 391.495 176.376 391.321 176.846C391.147 177.316 391.115 177.83 391.23 178.32L393.267 186.942H424.467L424.466 186.942Z" fill="url(#paint1_linear)"/>
<path d="M396.853 186.942H386.517C386.887 184.54 387.219 182.415 387.434 181.063C388.224 176.144 391.666 175.725 392.205 175.691C392.248 175.687 392.274 175.687 392.276 175.687H394.451L396.853 186.942Z" fill="url(#paint2_linear)"/>
<path d="M424.466 186.942H426.973C426.851 185.316 426.282 183.762 425.335 182.463C424.86 181.81 424.247 181.278 423.543 180.911L423.354 180.826L421.151 186.942H424.466Z" fill="url(#paint3_linear)"/>
<path d="M405.302 166.335C410.599 166.335 414.893 161.864 414.893 156.347C414.893 150.831 410.599 146.36 405.302 146.36C400.005 146.36 395.711 150.831 395.711 156.347C395.711 161.864 400.005 166.335 405.302 166.335Z" fill="#A0616A"/>
<path d="M398.864 151.481C399.857 152.705 401.537 153.05 403.087 153.191C406.711 153.399 410.345 153.09 413.888 152.272C414.109 154.488 413.509 156.878 414.762 158.701C415.35 156.494 415.691 154.224 415.78 151.935C415.874 150.954 415.751 149.963 415.421 149.038C415.244 148.574 414.946 148.172 414.561 147.876C414.175 147.58 413.718 147.403 413.241 147.364C413.955 146.8 414.792 146.427 415.678 146.28L412.633 144.686L413.415 143.85L407.901 143.499L409.498 142.442C407.094 142.098 404.662 142.019 402.241 142.205C401.111 142.205 400.001 142.526 399.033 143.133C398.123 143.811 397.596 145.159 398.162 146.154C397.454 146.275 396.788 146.582 396.226 147.046C395.665 147.51 395.226 148.116 394.952 148.806C394.606 149.903 394.522 151.071 394.709 152.209C394.916 154.035 395.324 155.831 395.923 157.56" fill="#2F2E41"/>
<path d="M124.879 290.102V121.186C124.935 120.662 125.187 120.182 125.58 119.849C125.972 119.515 126.474 119.355 126.979 119.402H330.927C331.431 119.355 331.934 119.515 332.326 119.849C332.718 120.182 332.97 120.662 333.027 121.186V290.102C332.97 290.627 332.718 291.107 332.326 291.44C331.934 291.774 331.431 291.934 330.927 291.887H126.979C126.474 291.934 125.972 291.774 125.58 291.44C125.187 291.107 124.935 290.627 124.879 290.102Z" fill="#E4E4E4"/>
<path d="M147.047 140.544V269.337C147.048 269.917 147.269 270.472 147.663 270.882C148.056 271.292 148.59 271.523 149.147 271.524H308.758C309.315 271.523 309.849 271.292 310.242 270.882C310.636 270.472 310.858 269.917 310.859 269.337V140.544C310.858 139.964 310.636 139.408 310.242 138.998C309.849 138.589 309.315 138.358 308.758 138.357H149.147C148.59 138.358 148.056 138.589 147.663 138.998C147.269 139.408 147.048 139.964 147.047 140.544Z" fill="white"/>
<path d="M213.248 271.524H245.371L243.369 240.234L231.781 243.019L220.51 238.504L220.211 238.388L220.193 238.378C220.189 238.387 220.186 238.397 220.183 238.407C220.006 239.151 216.468 253.901 213.248 271.524Z" fill="url(#paint4_linear)"/>
<path d="M193.889 245.343L196.89 271.524H223.964L220.51 238.504L220.477 238.183L220.212 238.387L220.184 238.407L213.505 243.481L193.889 245.343Z" fill="#2F2E41"/>
<path d="M240.62 271.524H264.865L265.215 250.912L247.373 244.749L243.369 240.234C243.369 240.234 242.104 253.818 240.62 271.524Z" fill="#2F2E41"/>
<path d="M182.217 271.524H202.309L201.021 252.769L193.89 245.342C193.89 245.342 188.247 257.668 182.217 271.524Z" fill="#2F2E41"/>
<path d="M259.148 271.524H269.747C269.7 265.517 269.672 261.366 269.672 260.195C269.725 258.384 269.346 256.588 268.568 254.968C267.79 253.348 266.638 251.954 265.215 250.912L259.862 252.769L259.148 271.524Z" fill="#2F2E41"/>
<path d="M260.802 230.389H204.64V205.738C204.64 197.291 210.355 187.134 217.38 183.097C227.24 177.432 238.019 177.333 246.954 182.825C251.159 185.419 254.646 189.104 257.073 193.522C259.501 197.939 260.785 202.937 260.802 208.026V230.389Z" fill="#2F2E41"/>
<path d="M251.632 218.789C257.006 208.552 253.393 195.717 243.563 190.121C233.733 184.525 221.407 188.287 216.034 198.524C210.66 208.761 214.273 221.596 224.103 227.192C233.933 232.788 246.258 229.026 251.632 218.789Z" fill="#FFB8B8"/>
<path d="M253.114 209.747H224.174L224.106 209.404C223.771 207.608 223.338 205.833 222.81 204.088C221.66 205.841 220.601 207.656 219.635 209.525L219.517 209.747H213.891C213.545 209.746 213.204 209.671 212.888 209.526C212.573 209.38 212.289 209.168 212.057 208.902C211.904 208.726 211.546 208.316 213.028 189.478C213.068 189.03 213.22 188.6 213.469 188.231C213.717 187.862 214.053 187.566 214.444 187.373C227.142 181.2 240.01 181.363 252.693 187.861H252.919L252.998 188.189C255.5 208.238 255.14 208.671 254.987 208.856C254.754 209.136 254.467 209.36 254.143 209.514C253.82 209.667 253.469 209.747 253.114 209.747Z" fill="#2F2E41"/>
</g>
<defs>
<linearGradient id="paint0_linear" x1="409.048" y1="264.642" x2="409.048" y2="282.246" gradientUnits="userSpaceOnUse">
<stop stop-color="#ED213A"/>
<stop offset="1" stop-color="#93291E"/>
</linearGradient>
<linearGradient id="paint1_linear" x1="408.262" y1="168.727" x2="408.262" y2="186.942" gradientUnits="userSpaceOnUse">
<stop stop-color="#ED213A"/>
<stop offset="1" stop-color="#93291E"/>
</linearGradient>
<linearGradient id="paint2_linear" x1="391.685" y1="175.687" x2="391.685" y2="186.942" gradientUnits="userSpaceOnUse">
<stop stop-color="#ED213A"/>
<stop offset="1" stop-color="#93291E"/>
</linearGradient>
<linearGradient id="paint3_linear" x1="424.062" y1="180.826" x2="424.062" y2="186.942" gradientUnits="userSpaceOnUse">
<stop stop-color="#ED213A"/>
<stop offset="1" stop-color="#93291E"/>
</linearGradient>
<linearGradient id="paint4_linear" x1="229.31" y1="238.378" x2="229.31" y2="271.524" gradientUnits="userSpaceOnUse">
<stop stop-color="#ED213A"/>
<stop offset="1" stop-color="#93291E"/>
</linearGradient>
<clipPath id="clip0">
<rect width="593" height="457" fill="white"/>
</clipPath>
</defs>
</svg>
